<svg xmlns="http://www.w3.org/2000/svg" viewBox="0 0 200 200" fill="none" role="img" aria-label="hevva">
  <defs>
    <linearGradient id="hevvaGrad" x1="20" y1="20" x2="180" y2="180" gradientUnits="userSpaceOnUse">
      <stop offset="0" stop-color="#7C3AED"></stop>
      <stop offset="0.55" stop-color="#E11D48"></stop>
      <stop offset="1" stop-color="#F97316"></stop>
    </linearGradient>
  </defs>
  <g fill="url(#hevvaGrad)">
    
    <path d="M19.2 70.6 A86 86 0 0 1 180.8 70.6 L172.0 76.3 A75.5 75.5 0 0 0 27.6 76.7 Z"></path>
    <path d="M180.8 129.4 A86 86 0 0 1 19.2 129.4 L28.0 123.7 A75.5 75.5 0 0 0 172.4 123.3 Z"></path>
    
    <path d="M188.6 88.4 L168.0 75.6 L191.6 65.6 Z"></path>
    
    <path d="M11.4 111.6 L32.0 124.4 L8.4 134.4 Z"></path>
    
    <rect x="61" y="53" width="18" height="7" rx="2"></rect>
    <rect x="57" y="60" width="26" height="13" rx="2.5"></rect>
    <rect x="65" y="73" width="10" height="54"></rect>
    <rect x="57" y="127" width="26" height="13" rx="2.5"></rect>
    <rect x="61" y="140" width="18" height="7" rx="2"></rect>
    
    <rect x="121" y="53" width="18" height="7" rx="2"></rect>
    <rect x="117" y="60" width="26" height="13" rx="2.5"></rect>
    <rect x="125" y="73" width="10" height="54"></rect>
    <rect x="117" y="127" width="26" height="13" rx="2.5"></rect>
    <rect x="121" y="140" width="18" height="7" rx="2"></rect>
    
    <rect x="70" y="95" width="60" height="10" rx="2"></rect>
  </g>
</svg>